# xmcd
#
# Track frame offsets:
#	150
#	11267
#	21137
#	37745
#	57922
#	72665
#	85772
#	102252
#	118007
#	128920
#	142347
#	155357
#	165975
#	183285
#	195277
#
# Disc length: 2777 seconds
#
# Revision: 2
# Processed by: cddbd v1.5.2PL0 Copyright (c) Steve Scherf et al.
# Submitted via: EasyCDDAExtractor 2011.3.0.0
#
DISCID=bc0ad70f
DTITLE=Various Artist - Love Songs
DYEAR=1998
DGENRE=Blues
TTITLE0=Roy Orbison - Only The Loney
TTITLE1=Marcels - Blue Moon
TTITLE2=Ray Charles - Georgia In My Mind
TTITLE3=Shirley Bassey - Never Never Never
TTITLE4=The Platters - The Great Pretender
TTITLE5=Percy Sledge - WHen A Man Loves A Woman
TTITLE6=Pop Tops - Mamy Blue
TTITLE7=Engelbert Humperdink - Please Release Me
TTITLE8=Dionne Warwick - Close To You
TTITLE9=Ben E. King - Stand By Me
TTITLE10=Mary Wells - My Guy
TTITLE11=Frankie Avalon - Venus
TTITLE12=Morris Albert - feelings
TTITLE13=Jerry Butler - Moon River
TTITLE14=Billie Holliday - My Man
EXTD=
EXTT0=
EXTT1=
EXTT2=
EXTT3=
EXTT4=
EXTT5=
EXTT6=
EXTT7=
EXTT8=
EXTT9=
EXTT10=
EXTT11=
EXTT12=
EXTT13=
EXTT14=
PLAYORDER=
